<?xml version="1.0" encoding="UTF-8" standalone="no"?>
<svg
   xmlns:dc="http://purl.org/dc/elements/1.1/"
   xmlns:cc="http://creativecommons.org/ns#"
   xmlns:rdf="http://www.w3.org/1999/02/22-rdf-syntax-ns#"
   xmlns:svg="http://www.w3.org/2000/svg"
   xmlns="http://www.w3.org/2000/svg"
   xmlns:sodipodi="http://sodipodi.sourceforge.net/DTD/sodipodi-0.dtd"
   xmlns:inkscape="http://www.inkscape.org/namespaces/inkscape"
   viewBox="0 0 100 100"
   width="100"
   height="100"
   fill="black"
   id="svg3001"
   version="1.1"
   inkscape:version="0.48.0 r9654"
   sodipodi:docname="vite.svg">
  <metadata
     id="metadata3015">
    <rdf:RDF>
      <cc:Work
         rdf:about="">
        <dc:format>image/svg+xml</dc:format>
        <dc:type
           rdf:resource="http://purl.org/dc/dcmitype/StillImage" />
      </cc:Work>
    </rdf:RDF>
  </metadata>
  <defs
     id="defs3013">
    <clipPath
       clipPathUnits="userSpaceOnUse"
       id="clipPath3063">
      <rect
         style="fill:#ffffff;stroke:#000000;stroke-width:2.61819601;stroke-linecap:round;stroke-linejoin:round;stroke-miterlimit:4;stroke-opacity:1;stroke-dasharray:none;stroke-dashoffset:0"
         id="rect3065"
         width="140.48364"
         height="97.359077"
         x="131.80556"
         y="-17.051579" />
    </clipPath>
  </defs>
  <sodipodi:namedview
     pagecolor="#ffffff"
     bordercolor="#666666"
     borderopacity="1"
     objecttolerance="10"
     gridtolerance="10"
     guidetolerance="10"
     inkscape:pageopacity="0"
     inkscape:pageshadow="2"
     inkscape:window-width="1600"
     inkscape:window-height="837"
     id="namedview3011"
     showgrid="false"
     inkscape:zoom="2.0576808"
     inkscape:cx="120.20042"
     inkscape:cy="28.767354"
     inkscape:window-x="-8"
     inkscape:window-y="-8"
     inkscape:window-maximized="1"
     inkscape:current-layer="svg3001" />
  <!-- Mountain Base -->
  <!-- Mountain Peaks -->
  <path
     style="fill:#000000"
     d="m 66.109258,80.673798 c -1.368947,-1.163955 -2.20874,-2.899616 -2.328701,-4.813061 -0.107055,-1.707253 -0.961041,-3.750385 -1.988148,-4.756813 -0.990465,-0.970455 -1.800527,-2.86668 -1.800527,-4.214716 0,-1.392706 -0.958838,-3.53211 -2.221159,-4.956045 l -2.221158,-2.505507 1.303551,-3.282233 c 0.716957,-1.805234 1.303552,-3.675556 1.303552,-4.156255 0,-0.480713 -0.963486,-2.282575 -2.141081,-4.004168 -1.910274,-2.792722 -2.141083,-3.801466 -2.141083,-9.357474 0,-5.045661 -0.290208,-6.677104 -1.529343,-8.597683 -0.84114,-1.303712 -1.541763,-3.494921 -1.556935,-4.869365 -0.01529,-1.374444 -0.36643,-4.376121 -0.780576,-6.670388 L 49.254601,14.318698 46.596294,22.4695 c -1.462114,4.482942 -3.136685,8.1508 -3.721323,8.1508 -1.461869,0 -6.457747,10.659278 -7.654673,16.332339 -0.931982,4.416856 -0.918279,4.770474 0.272224,7.052542 1.744431,3.343934 1.579078,4.109225 -0.887754,4.109225 -1.495332,0 -2.141082,0.65462 -2.141082,2.170588 0,1.193823 0.308988,2.170588 0.686614,2.170588 0.463269,0 0.490369,0.588546 0.08345,1.808822 -1.039037,3.11543 -0.674502,7.440671 0.990219,11.748318 l 1.604282,4.151263 -1.529343,-1.114857 c -0.84114,-0.613163 -2.86538,-1.951677 -4.498352,-2.974472 -3.363334,-2.106599 -4.287914,-3.489668 -2.332739,-3.489668 1.477101,0 1.595472,-1.025747 0.735736,-6.374797 -0.458803,-2.854381 -0.376707,-3.951078 0.369613,-4.939085 0.869707,-1.151309 0.867689,-1.689513 -0.02202,-5.759133 -1.209406,-5.532291 -1.215156,-6.079915 -0.06375,-6.079915 0.504684,0 0.917607,-0.93833 0.917607,-2.085183 0,-3.982738 -1.162118,-3.742034 -3.292188,0.681883 -1.178024,2.446744 -3.31837,5.920262 -4.756259,7.718926 -1.897916,2.374117 -3.039296,5.228323 -4.165017,10.415549 -1.267703,5.841659 -1.885436,7.233381 -3.385845,7.62811 -1.009367,0.265564 -2.248136,1.32144 -2.75282,2.346405 -0.504683,1.024979 -1.6058106,2.630246 -2.4469499,3.567288 -1.2224356,1.361812 -1.0997205,0.798992 0.6117378,-2.804689 1.1775951,-2.479621 3.0195371,-5.392462 4.0931971,-6.47301 1.242806,-1.250764 2.420707,-4.137298 3.241721,-7.944247 0.980676,-4.547221 1.969122,-6.668653 4.126232,-8.855881 1.560175,-1.581938 4.037894,-5.495536 5.506126,-8.696878 1.468232,-3.201354 2.862199,-5.593531 3.097717,-5.315956 0.235519,0.27756 1.226963,1.447232 2.203235,2.599265 1.762783,2.080217 1.798448,2.034361 5.19977,-6.689201 3.553156,-9.113023 11.756681,-25.162953 12.861418,-25.162953 0.582558,0 2.4891,4.569014 7.183391,17.214957 l 1.824446,4.914962 3.966936,-5.247655 3.966935,-5.24767 5.015756,14.441525 c 3.906985,11.249184 5.352521,14.441511 6.539353,14.441511 1.697019,0 3.22826,3.092869 4.955379,10.009012 0.634616,2.541295 2.399663,6.511574 3.922278,8.822844 2.942703,4.466822 6.719449,12.998285 5.759817,13.011049 -0.31529,0.0043 -4.123051,-3.724076 -8.46174,-8.285031 -6.750767,-7.096618 -8.000975,-8.929462 -8.668381,-12.708006 -0.478562,-2.709182 -1.660745,-5.408973 -3.059422,-6.986686 -1.656463,-1.868557 -2.095752,-3.005946 -1.607219,-4.161552 0.488534,-1.15562 0.345816,-2.571972 -0.522179,-5.182262 -0.656945,-1.97561 -1.194479,-4.336241 -1.194479,-5.245861 0,-0.909607 -0.48174,-2.675972 -1.070538,-3.925233 -0.588797,-1.249273 -1.37745,-3.510317 -1.752628,-5.024532 -0.661901,-2.671704 -0.76143,-2.65033 -3.364557,0.72295 -5.085131,6.589569 -5.341327,8.343939 -1.958173,13.408817 1.239503,1.85565 2.529413,3.812651 2.86642,4.348901 0.391695,0.623292 0.319694,1.81043 -0.199733,3.290858 -0.446874,1.273714 -0.704477,2.497188 -0.572403,2.718849 0.132074,0.221645 1.039526,1.589013 2.016654,3.038604 1.59425,2.365145 1.666435,2.781362 0.70356,4.055974 -0.961651,1.273065 -0.831657,2.004798 1.25339,7.055827 2.210572,5.355085 2.253944,5.635467 0.872032,5.635467 l -1.454223,0 1.436727,3.617644 c 1.592411,4.009567 1.310583,4.251718 -1.835213,1.577049 z M 52.040087,79.099052 c -0.443632,-1.264513 -1.265135,-1.87795 -1.888312,-1.410072 -0.745708,0.559837 -1.427673,-0.343677 -2.104867,-2.788511 -0.550992,-1.989169 -1.97891,-4.980326 -3.173083,-6.647018 -1.984723,-2.770045 -2.079052,-3.189778 -1.098376,-4.886123 0.984348,-1.702579 0.878456,-2.234894 -1.282508,-6.448466 -1.582136,-3.084956 -2.015491,-4.592688 -1.319946,-4.592688 1.294253,0 2.514181,-5.159414 2.10187,-8.889177 -0.188538,-1.70517 0.262068,-4.342376 1.149149,-6.725595 l 1.459239,-3.920514 0.02875,4.341175 c 0.01591,2.387646 0.275526,5.263586 0.577174,6.390975 0.327097,1.222302 0.312109,3.520866 -0.03732,5.693856 -0.45238,2.814803 -0.37053,3.928879 0.359762,4.89563 0.573199,0.758778 0.945441,3.254911 0.945441,6.339503 0,6.370747 0.943544,10.685902 2.336594,10.685902 0.588491,0 1.569168,1.99862 2.179131,4.441355 1.199863,4.804754 1.044176,7.159262 -0.232766,3.519768 z m -31.199415,-0.0022 c 0,-0.397941 0.06882,-0.996661 0.152935,-1.330483 0.08411,-0.333822 -0.514411,-2.287351 -1.330101,-4.341175 l -1.483036,-3.73422 1.330101,-3.349145 c 0.731577,-1.842031 1.330101,-4.098241 1.330101,-5.013795 0,-0.915554 0.532457,-2.338736 1.183285,-3.162619 2.18788,-2.769784 2.187512,-2.744417 -0.113784,8.1875 -0.837652,3.979179 -0.852028,4.857687 -0.103506,6.327174 1.148415,2.25459 1.11532,7.140293 -0.04833,7.140293 -0.504684,0 -0.917606,-0.325589 -0.917606,-0.72353 z"
     id="path2996"
     inkscape:connector-curvature="0"
     sodipodi:nodetypes="sccsscsssssccccscsssscscssscccsscscssssssssccssscccsssscsccsssscsscccscsscssccsscssccccccsssccccsscsscssscc" />
  <path
     style="fill:#ffffff;stroke:#000000;stroke-width:2;stroke-linecap:round;stroke-linejoin:round;stroke-miterlimit:4;stroke-opacity:1;stroke-dasharray:none;stroke-dashoffset:0"
     id="path3046"
     d="m 34.425636,56.479243 c 0.523722,6.35e-4 1.047445,3.61e-4 1.571168,2.27e-4 0.381811,-0.03445 0.75799,-0.118802 1.120691,-0.241318 0.347428,-0.130445 0.771956,-0.16589 1.061599,-0.420147 0.349867,-0.237034 0.579995,-0.600253 0.857929,-0.911083 0.224832,-0.29342 0.467385,-0.570441 0.705154,-0.853002 0.257207,-0.249459 0.484351,-0.526364 0.726276,-0.790407 0.196433,-0.236454 0.404175,-0.455424 0.575642,-0.711236 0.173253,-0.304959 0.342312,-0.613111 0.472333,-0.939239 0.166435,-0.275307 0.232993,-0.583215 0.317975,-0.888043 0.148921,-0.33269 0.242784,-0.684433 0.378718,-1.021897 0.144585,-0.396566 0.343475,-0.769923 0.496064,-1.163016 0.09113,-0.322011 0.161666,-0.648389 0.244467,-0.973048 0.04907,-0.280288 0.165275,-0.69811 0.537572,-0.629655 0.288177,0.175622 0.324675,0.566383 0.366594,0.872443 0.03791,0.36011 0.03633,0.722742 0.03644,1.084376 -0.0011,0.361958 -0.0027,0.723913 -0.0035,1.085872 0.0071,0.409491 0.0056,0.815006 -0.04924,1.221112 -0.04999,0.442067 -0.215695,0.859971 -0.359725,1.278094 -0.174923,0.344707 -0.322414,0.694179 -0.398191,1.073814 -0.09721,0.390361 -0.239862,0.765066 -0.320854,1.160141 -0.07272,0.349718 -0.05087,0.708713 -0.09688,1.060802 -0.02312,0.388373 -0.243614,0.550604 -0.552951,0.732115 -0.37919,0.244026 -0.798373,0.345404 -1.239482,0.394227 -0.37403,-7.14e-4 -0.714421,0.158685 -1.068485,0.256055 -0.443006,0.07274 -0.889361,0.123991 -1.334377,0.186555 -0.408974,0.06884 -0.825472,0.05947 -1.235522,0.112529 -0.398936,0.04028 -0.780983,0.162142 -1.172504,0.241298 -0.409905,0.08231 -0.802585,0.19547 -1.188791,0.354038 -0.346969,0.12445 -0.704682,0.222197 -1.062577,0.311187 -0.392207,0.08711 -0.795691,0.07578 -1.192114,0.125698 -0.348854,0.106817 -0.692537,0.218923 -1.053492,0.277268 -0.333514,0.0468 -0.658795,0.08563 -0.95349,-0.101302 -0.217967,-0.210429 -0.26147,-0.461721 -0.149307,-0.732871 0.13746,-0.202715 0.301909,-0.388479 0.506526,-0.524304 0.287973,-0.167342 0.576084,-0.302163 0.903374,-0.364003 0.331028,-0.0235 0.653069,-0.102977 0.98023,-0.154423 0.336984,-0.05905 0.682573,-0.112218 1.010858,-0.210871 0.28983,-0.109651 0.593946,-0.154471 0.900875,-0.179888 0.173618,-0.01851 0.334466,-0.08773 0.497033,-0.146422 0,0 -0.133892,0.104524 -0.133892,0.104524 l 0,0 c -0.163327,0.05851 -0.325375,0.126096 -0.499874,0.143016 -0.306424,0.02651 -0.609257,0.07402 -0.89883,0.182642 -0.329906,0.09504 -0.674071,0.151876 -1.012059,0.209031 -0.326951,0.05225 -0.649387,0.129378 -0.980109,0.155049 -0.139515,0.02758 -0.272314,0.05785 -0.403546,0.114366 -0.07905,0.03404 -0.149044,0.08892 -0.230864,0.115623 -0.01263,0.0041 0.01707,-0.02037 0.02561,-0.03055 -0.20697,0.131217 -0.367865,0.317136 -0.510419,0.514928 -0.120823,0.280139 -0.0834,0.489158 0.137507,0.711945 0.292789,0.18089 0.617606,0.137337 0.946233,0.09139 0.360536,-0.05997 0.703353,-0.174992 1.053553,-0.276469 0.396393,-0.04785 0.799576,-0.03863 1.191141,-0.127568 0.357248,-0.08999 0.715004,-0.186276 1.06086,-0.312944 0.386616,-0.158209 0.781163,-0.268288 1.190887,-0.351622 0.391361,-0.0802 0.774025,-0.200444 1.17312,-0.240169 0.410175,-0.05072 0.826201,-0.04406 1.235033,-0.11246 0.444798,-0.06267 0.891475,-0.112138 1.333645,-0.188776 0.354024,-0.09882 0.695658,-0.254324 1.070042,-0.253867 0.32478,-0.03729 0.644178,-0.101532 0.944784,-0.231948 0.331211,-0.193025 0.520531,-0.303252 0.558977,-0.71791 0.04807,-0.352194 0.02395,-0.711771 0.09653,-1.061923 0.08005,-0.395328 0.221851,-0.77007 0.320716,-1.159961 0.07442,-0.380757 0.219404,-0.732047 0.397775,-1.07619 0.143948,-0.417159 0.310004,-0.834101 0.360965,-1.274989 0.05549,-0.40543 0.05761,-0.810099 0.05015,-1.219042 6.35e-4,-0.361908 0.0019,-0.723812 0.0033,-1.085718 2.1e-5,-0.360959 0.0018,-0.722894 -0.03528,-1.082394 -0.04002,-0.296444 -0.07207,-0.687502 -0.355963,-0.853288 -0.03253,-0.0037 -0.0813,0.01723 -0.09759,-0.01118 -0.01327,-0.02315 0.06739,-0.07628 0.06248,-0.05005 -0.0069,0.03701 -0.05011,0.05674 -0.06975,0.08887 -0.08044,0.131549 -0.113425,0.280348 -0.139602,0.430271 -0.08235,0.325466 -0.155708,0.651657 -0.244084,0.975122 -0.151477,0.393677 -0.351671,0.76652 -0.49605,1.163292 -0.13643,0.336787 -0.228387,0.688516 -0.379071,1.019998 -0.08621,0.304806 -0.147883,0.615141 -0.317417,0.889719 -0.128817,0.327484 -0.298846,0.635757 -0.47061,0.942418 -0.171273,0.256969 -0.377317,0.476891 -0.574639,0.713687 -0.243594,0.2625 -0.467092,0.542782 -0.726817,0.789828 -0.238703,0.281892 -0.480489,0.55952 -0.704935,0.853464 -0.279455,0.310537 -0.508795,0.67499 -0.856654,0.915416 -0.428336,0.264506 -0.857441,0.477499 -1.353292,0.585675 -0.364175,0.120193 -0.740647,0.20659 -1.123725,0.23677 -0.523931,-1.35e-4 -1.047863,-4.08e-4 -1.571794,2.27e-4 0,0 0.137548,-0.09993 0.137548,-0.09993 z"
     inkscape:connector-curvature="0" />
  <path
     style="fill:#ffffff;stroke:#000000;stroke-width:2;stroke-linecap:round;stroke-linejoin:round;stroke-miterlimit:4;stroke-opacity:1;stroke-dasharray:none;stroke-dashoffset:0"
     id="path3048"
     d="m 39.236,56.1142 c 0.25488,-0.04377 0.510707,-0.106573 0.739473,-0.231887 0.161141,-0.08827 0.317395,-0.271177 0.457484,-0.390734 0.293243,-0.280051 0.592174,-0.551248 0.898244,-0.81714 0.278918,-0.202078 0.483923,-0.345828 0.54978,-0.698305 0.0034,-0.04069 0.02517,-0.125588 -0.01054,-0.168829 -0.0062,-0.0075 -0.03815,-0.0052 -0.02928,-0.0011 0.02313,0.01065 0.07254,-0.004 0.07333,0.02143 0.0015,0.0471 -0.04598,0.08226 -0.06878,0.123493 -0.02585,0.04674 -0.05146,0.09361 -0.07719,0.140412 -0.174997,0.321643 -0.314332,0.650225 -0.386997,1.009443 -0.01588,0.06038 -0.03176,0.120754 -0.04765,0.18113 0,0 -0.153216,0.07313 -0.153216,0.07313 l 0,0 c 0.01607,-0.06007 0.03214,-0.120147 0.0482,-0.18022 0.07089,-0.361042 0.209309,-0.690815 0.384441,-1.013978 0.07396,-0.134783 0.454188,-0.780102 0.420683,-0.259437 -0.06192,0.359112 -0.258822,0.505817 -0.545348,0.708913 -0.305103,0.267247 -0.607798,0.534903 -0.898953,0.817625 -0.440979,0.376346 -0.891025,0.726315 -1.48998,0.787729 0,0 0.136284,-0.101629 0.136284,-0.101629 z"
     inkscape:connector-curvature="0" />
  <path
     style="fill:#ffffff;stroke:#000000;stroke-width:2;stroke-linecap:round;stroke-linejoin:round;stroke-miterlimit:4;stroke-opacity:1;stroke-dasharray:none;stroke-dashoffset:0"
     id="path3050"
     d="m 43.526754,48.501432 c -0.127614,-0.517138 -0.210533,-1.043233 -0.264128,-1.572738 -0.03224,-0.41795 -0.05707,-0.838324 -0.02116,-1.256459 0.07025,-0.478616 0.253764,-0.927362 0.376944,-1.392657 0.06258,-0.364874 0.157997,-0.722833 0.222736,-1.087323 0.02887,-0.347639 0.114369,-0.68557 0.171843,-1.028829 0.03014,-0.228103 0.01697,-0.113926 0.03953,-0.34253 0,0 0.152156,-0.07567 0.152156,-0.07567 l 0,0 c -0.02224,0.229283 -0.0092,0.11476 -0.03904,0.343567 -0.05692,0.343449 -0.143799,0.681155 -0.17179,1.028987 -0.06414,0.36512 -0.160837,0.723203 -0.222475,1.088766 -0.122338,0.464869 -0.306447,0.912506 -0.378359,1.390126 -0.03711,0.417105 -0.01133,0.836616 0.01962,1.253685 0.05269,0.528737 0.134325,1.054318 0.263621,1.570224 0,0 -0.149503,0.08085 -0.149503,0.08085 z"
     inkscape:connector-curvature="0" />
  <path
     style="fill:#ffffff;stroke:#000000;stroke-width:2;stroke-linecap:round;stroke-linejoin:round;stroke-miterlimit:4;stroke-opacity:1;stroke-dasharray:none;stroke-dashoffset:0"
     id="path3052"
     d="m 43.830058,38.596328 c -0.16918,0.504094 -0.366194,0.988265 -0.646601,1.440955 -0.269873,0.395392 -0.484618,0.826259 -0.756614,1.219489 -0.228199,0.351169 -0.490907,0.676752 -0.792529,0.966898 -0.342547,0.294339 -0.654131,0.618392 -0.972516,0.936714 -0.309557,0.345975 -0.619087,0.694946 -0.956029,1.015034 -0.191667,0.308402 -0.591432,0.467909 -0.738786,0.801905 0.06166,0.196298 0.42082,0.157134 0.586658,0.163761 0.402555,-0.04604 0.7802,-0.230706 1.149278,-0.391034 0.335622,-0.167551 0.65059,-0.36516 0.980718,-0.545023 0.291759,-0.151471 0.557457,-0.406063 0.899319,-0.426562 0.286685,0.09589 0.223602,0.41627 0.197085,0.653989 -0.07644,0.400267 -0.294692,0.744412 -0.547556,1.056038 -0.224887,0.306311 -0.492961,0.575874 -0.72329,0.879277 -0.248744,0.32782 -0.539432,0.599104 -0.862616,0.851479 -0.395779,0.255207 -0.786187,0.520923 -1.191831,0.760745 -0.325056,0.167596 -0.646421,0.341104 -0.956343,0.535205 -0.348446,0.258523 -0.728506,0.479746 -1.023892,0.800838 -0.19903,0.259941 -0.290023,0.557425 -0.03716,0.805119 0.276509,0.17354 0.59332,0.168199 0.904612,0.126377 0.352214,-0.03609 0.694432,-0.114998 1.039362,-0.1908 0.342612,-0.134416 0.7069,-0.179906 1.061656,-0.264853 0.198428,-0.04298 0.623561,-0.22989 0.698339,0.07143 -0.02822,0.328398 -0.222888,0.605131 -0.384087,0.881406 -0.197084,0.28663 -0.382173,0.581362 -0.597994,0.854505 -0.221163,0.313404 -0.462957,0.610576 -0.688716,0.920564 -0.249915,0.290401 -0.479746,0.597092 -0.756808,0.862646 -0.330453,0.270295 -0.674398,0.523633 -1.03887,0.746016 -0.423103,0.256129 -0.861795,0.485356 -1.319391,0.672921 -0.428167,0.193343 -0.866556,0.363092 -1.309966,0.517941 -0.42282,0.107903 -0.806378,0.317693 -1.220926,0.4494 0,0 0.134141,-0.103961 0.134141,-0.103961 l 0,0 c 0.413453,-0.133535 0.797817,-0.341202 1.220164,-0.449385 0.443144,-0.155639 0.881251,-0.325851 1.3096,-0.518811 0.353491,-0.146289 0.699578,-0.312378 1.028325,-0.507053 0.365605,-0.219847 0.707797,-0.475176 1.040006,-0.742526 0.278815,-0.263412 0.506698,-0.57114 0.758082,-0.859853 0.225685,-0.310107 0.467469,-0.607253 0.688126,-0.921081 0.216981,-0.272017 0.400464,-0.567043 0.599165,-0.852332 0.158681,-0.274537 0.352384,-0.545022 0.388512,-0.869404 -0.05609,-0.283975 -0.511248,-0.08252 -0.682722,-0.04946 -0.355536,0.08259 -0.71813,0.134154 -1.061872,0.264706 -0.345017,0.07634 -0.688059,0.152809 -1.040291,0.189656 -0.315377,0.04032 -0.636712,0.04101 -0.913696,-0.138945 -0.255179,-0.25568 -0.177783,-0.557467 0.02591,-0.828537 0.292848,-0.324819 0.67426,-0.54479 1.022362,-0.805178 0.304876,-0.192247 0.626094,-0.396594 0.956139,-0.535654 0.406596,-0.238312 0.795551,-0.506267 1.193075,-0.758866 0.323175,-0.251543 0.61499,-0.519839 0.863697,-0.847159 0.230026,-0.303951 0.497517,-0.57409 0.723009,-0.879847 0.25417,-0.307807 0.471972,-0.649864 0.551331,-1.047044 0.02541,-0.223327 0.09776,-0.545541 -0.181859,-0.628245 -0.34139,0.03121 -0.599757,0.278432 -0.894495,0.43193 -0.319366,0.173409 -0.641261,0.381151 -0.981298,0.543533 -0.370609,0.159551 -0.74919,0.346669 -1.154374,0.385316 -0.184246,-0.0079 -0.538575,0.02881 -0.603765,-0.191743 0.136367,-0.341684 0.548075,-0.497346 0.737434,-0.809043 0.338711,-0.317973 0.646931,-0.668507 0.955967,-1.014536 0.320067,-0.316535 0.627969,-0.644665 0.972576,-0.937092 0.302789,-0.288132 0.565543,-0.613215 0.793689,-0.963724 0.27436,-0.391555 0.486358,-0.824273 0.757396,-1.218877 0.281751,-0.451065 0.480591,-0.93352 0.646592,-1.438132 0,0 0.154567,-0.07103 0.154567,-0.07103 z"
     inkscape:connector-curvature="0" />
  <path
     style="fill:#ffffff;stroke:#000000;stroke-width:2;stroke-linecap:round;stroke-linejoin:round;stroke-miterlimit:4;stroke-opacity:1;stroke-dasharray:none;stroke-dashoffset:0"
     id="path3054"
     d="m 39.867115,50.578024 c 0.270671,-0.459071 0.4777,-0.944854 0.673684,-1.438626 0.161143,-0.377542 0.291512,-0.762332 0.406055,-1.155976 0.0452,-0.156598 0.385504,-0.65087 0.0655,-0.689528 -0.268081,0.05234 -0.294498,0.117098 -0.471788,0.281387 -0.114044,0.137457 -0.44848,0.368218 -0.266595,0.55875 0.278117,0.145813 0.556899,0.0546 0.837369,-0.02676 0.370094,-0.134049 0.752764,-0.269493 1.086382,-0.483579 0.313799,-0.216521 0.650669,-0.395931 0.950025,-0.632547 0.03999,-0.04081 0.07998,-0.08162 0.119963,-0.122425 0,0 0.156898,-0.06528 0.156898,-0.06528 l 0,0 c -0.03973,0.04149 -0.07947,0.08299 -0.119198,0.124486 -0.298277,0.23881 -0.635853,0.41711 -0.949362,0.63488 -0.440376,0.255763 -0.888661,0.500636 -1.379117,0.648029 -0.284372,0.08213 -0.571613,0.168698 -0.849077,0.01195 -0.188682,-0.210026 0.123385,-0.429311 0.255084,-0.582776 0.211036,-0.201412 0.475392,-0.403363 0.769424,-0.444136 0.333635,0.07636 0.0076,0.529049 -0.05229,0.714871 -0.114686,0.394137 -0.243304,0.779954 -0.405729,1.157605 -0.196686,0.493797 -0.401979,0.980598 -0.671952,1.440461 0,0 -0.155277,0.06922 -0.155277,0.06922 z"
     inkscape:connector-curvature="0" />
  <path
     style="fill:#ffffff;stroke:#000000;stroke-width:2;stroke-linecap:round;stroke-linejoin:round;stroke-miterlimit:4;stroke-opacity:1;stroke-dasharray:none;stroke-dashoffset:0"
     id="path3056"
     d="m 42.344057,46.26686 c -0.05233,-0.522714 -0.130108,-1.046699 -0.111673,-1.572874 0.04842,-0.460779 0.0877,-0.922065 0.111352,-1.384797 0.0339,-0.355467 0.200971,-0.675758 0.285425,-1.02024 0.0601,-0.32744 0.06754,-0.658234 0.127647,-0.985762 0.02798,-0.172614 0.05693,-0.343175 0.09761,-0.513233 0,0 0.15316,-0.07351 0.15316,-0.07351 l 0,0 c -0.04151,0.169701 -0.0703,0.339856 -0.09798,0.512371 -0.06072,0.327784 -0.06909,0.658439 -0.127112,0.986561 -0.08295,0.344499 -0.249843,0.663552 -0.287446,1.017692 -0.02365,0.462667 -0.06193,0.92404 -0.111579,1.384648 -0.02067,0.525158 0.05749,1.04853 0.111097,1.570088 0,0 -0.150505,0.07906 -0.150505,0.07906 z"
     inkscape:connector-curvature="0" />
  <path
     style="fill:#ffffff;stroke:#000000;stroke-width:2;stroke-linecap:round;stroke-linejoin:round;stroke-miterlimit:4;stroke-opacity:1;stroke-dasharray:none;stroke-dashoffset:0"
     id="path3058"
     d="m 39.929388,56.511137 c -0.265282,0.14573 -0.522613,0.304911 -0.769691,0.479695 -0.181736,0.11693 -0.347175,0.255775 -0.515594,0.39047 -0.153057,0.117653 -0.298899,0.244112 -0.439379,0.376642 -0.144037,0.133538 -0.244025,0.303194 -0.343452,0.470376 -0.110455,0.19926 -0.15424,0.425627 -0.229786,0.638983 -0.08282,0.231615 -0.135904,0.472938 -0.177879,0.714941 -0.03293,0.199897 -0.04116,0.402401 -0.04494,0.604572 -0.0064,0.200935 -0.0037,0.399629 0.0237,0.598724 0.0281,0.201016 0.08682,0.39551 0.118842,0.596055 0.0549,0.192406 0.07117,0.392267 0.110226,0.587601 0.04934,0.176213 0.05846,0.359562 0.09226,0.538348 0.06815,0.191112 0.105442,0.390212 0.156094,0.585899 0.07095,0.173863 0.126791,0.352818 0.186157,0.530785 0.06487,0.175225 0.133691,0.34661 0.21481,0.514885 0.09346,0.154045 0.14817,0.325334 0.216248,0.490924 0.04801,0.175768 0.09789,0.351547 0.132436,0.530681 0.0338,0.171614 0.01564,0.347963 0.07225,0.514403 0.06897,0.191798 0.185388,0.358746 0.299173,0.525675 0.101399,0.167079 0.200293,0.336348 0.274127,0.517607 0.06645,0.143182 0.127563,0.284475 0.211846,0.418074 0.03725,0.08629 0.08611,0.136431 -0.06835,0.143919 -0.03851,0.0019 -0.06506,-0.04148 -0.09612,-0.06432 -0.12822,-0.103074 -0.228749,-0.240992 -0.305537,-0.385793 -0.0866,-0.161808 -0.15524,-0.332301 -0.236779,-0.496599 -0.08466,-0.170156 -0.179754,-0.334251 -0.259209,-0.507246 -0.08554,-0.139238 -0.16254,-0.281433 -0.238976,-0.425908 -0.05982,-0.142668 -0.1716,-0.251244 -0.248745,-0.383478 -0.115437,-0.163509 -0.242136,-0.318187 -0.363187,-0.477621 -0.07626,-0.155931 -0.21511,-0.241514 -0.344922,-0.34552 -0.02094,-0.01805 -0.0413,-0.0368 -0.06283,-0.05415 -0.05368,-0.04327 -0.115124,-0.09557 -0.189399,-0.09165 -0.02233,0.0012 -0.08452,0.0273 -0.03405,0.0068 -0.125696,0.113595 -0.188148,0.271909 -0.251223,0.425012 -0.08913,0.188999 -0.120847,0.396399 -0.196651,0.589843 -0.05966,0.121354 -0.07869,0.296888 -0.205096,0.374634 -0.04276,0.0263 -0.08996,0.04456 -0.134942,0.06685 -0.199865,0.03226 -0.370009,-0.120778 -0.526131,-0.226046 -0.144394,-0.112827 -0.281732,-0.233469 -0.403802,-0.370207 -0.121914,-0.133562 -0.216634,-0.289077 -0.301973,-0.447746 -0.09088,-0.142749 -0.168139,-0.293451 -0.24949,-0.441815 -0.09377,-0.162396 -0.170202,-0.333572 -0.255666,-0.500526 -0.08362,-0.169584 -0.11009,-0.35803 -0.148993,-0.541119 -0.04877,-0.195033 -0.132502,-0.377837 -0.185976,-0.571358 -0.04128,-0.173953 -0.09004,-0.344885 -0.116223,-0.522085 -0.04052,-0.171571 -0.07327,-0.34427 -0.11887,-0.514549 -0.04698,-0.168368 -0.06284,-0.342287 -0.07198,-0.516117 -0.0067,-0.171798 -0.0059,-0.343769 -0.0058,-0.515663 3.28e-4,-0.171822 6.08e-4,-0.343644 7.59e-4,-0.515466 -0.01393,-0.168997 0.04613,-0.322218 0.100623,-0.477815 0.05609,-0.157987 0.09806,-0.319292 0.140446,-0.481315 0.0546,-0.170911 0.05565,-0.32223 -0.04097,-0.473741 -0.109039,-0.140207 -0.27534,-0.165118 -0.435854,-0.208152 -0.189459,-0.05078 -0.374993,-0.118892 -0.556707,-0.1927 -0.194945,-0.07231 -0.380659,-0.166426 -0.573881,-0.242766 -0.214637,-0.08111 -0.423865,-0.176002 -0.640203,-0.252479 -0.03306,-0.01307 -0.06612,-0.02615 -0.09918,-0.03922 0,0 0.07038,-0.0472 0.07038,-0.0472 l 0,0 c 0.033,0.013 0.06599,0.026 0.09899,0.03899 0.216243,0.07706 0.425706,0.171677 0.640523,0.25264 0.192959,0.07692 0.378908,0.170454 0.573775,0.242907 0.181685,0.07331 0.366924,0.141373 0.556315,0.191694 0.162707,0.04314 0.329588,0.07128 0.439303,0.213436 0.09785,0.153417 0.0995,0.306539 0.04408,0.480014 -0.04254,0.162107 -0.08368,0.323775 -0.139949,0.481829 -0.05395,0.154968 -0.1162,0.30683 -0.101975,0.475304 -1.48e-4,0.171823 -4.24e-4,0.343645 -7.58e-4,0.515466 -1.61e-4,0.171761 -9.25e-4,0.343595 0.0056,0.515264 0.0089,0.17328 0.02438,0.346693 0.07111,0.514557 0.04572,0.170588 0.07855,0.343559 0.119354,0.515406 0.02586,0.176945 0.07453,0.347535 0.115668,0.521199 0.05322,0.193785 0.137092,0.376703 0.186128,0.571849 0.03879,0.182344 0.06511,0.370079 0.147972,0.539128 0.0854,0.166895 0.161915,0.337943 0.255613,0.500278 0.08138,0.148379 0.158819,0.298989 0.24948,0.441899 0.08499,0.15811 0.179465,0.313005 0.301092,0.44594 0.121709,0.136057 0.258335,0.256488 0.402328,0.368638 0.154535,0.103938 0.323933,0.256604 0.521829,0.219021 -0.01586,0.02615 -0.04161,0.06453 0.04331,-0.02933 0.06018,-0.06652 0.08402,-0.149981 0.115373,-0.231555 0.01192,-0.031 0.02495,-0.06156 0.03743,-0.09234 0.0769,-0.19311 0.107631,-0.400722 0.196499,-0.589893 0.06295,-0.154239 0.125784,-0.312546 0.248856,-0.42983 0.22709,-0.13256 0.241967,-0.104477 0.437789,0.06297 0.130481,0.104154 0.269045,0.191289 0.345788,0.347447 0.121274,0.159689 0.248107,0.314698 0.363813,0.478442 0.07735,0.132202 0.189388,0.24084 0.249076,0.383704 0.07643,0.14466 0.153434,0.287014 0.239068,0.426403 0.07933,0.172953 0.174326,0.337018 0.258873,0.507136 0.08167,0.164148 0.150441,0.334489 0.236972,0.496234 0.07609,0.143757 0.175873,0.28074 0.303655,0.382421 0.01763,0.01276 0.03467,0.02639 0.0529,0.03827 0.01347,0.0088 0.0421,0.0076 0.04206,0.02363 -5e-5,0.02267 -0.02577,0.03773 -0.04223,0.05333 -0.0044,0.0041 0.0055,-0.01159 0.0044,-0.01752 -0.0058,-0.03171 -0.03419,-0.05691 -0.03816,-0.08886 -0.08452,-0.134055 -0.145952,-0.275739 -0.212428,-0.419468 -0.07339,-0.180802 -0.17215,-0.349476 -0.273065,-0.516145 -0.114114,-0.167587 -0.231138,-0.335113 -0.300582,-0.5275 -0.05716,-0.166858 -0.03976,-0.343235 -0.07271,-0.515501 -0.0342,-0.17865 -0.08414,-0.353808 -0.131756,-0.529117 -0.0679,-0.165495 -0.122361,-0.336704 -0.215831,-0.490579 -0.08126,-0.168613 -0.15038,-0.340235 -0.215377,-0.515806 -0.05937,-0.178171 -0.115155,-0.357349 -0.186377,-0.531323 -0.05091,-0.195788 -0.08742,-0.395299 -0.156441,-0.586345 -0.03425,-0.178681 -0.04259,-0.362155 -0.09213,-0.538325 -0.03939,-0.195368 -0.05497,-0.395482 -0.110437,-0.587879 -0.03173,-0.20068 -0.09043,-0.395224 -0.118808,-0.596263 -0.02782,-0.199474 -0.03088,-0.398446 -0.02446,-0.599827 0.0037,-0.202607 0.01186,-0.405552 0.04471,-0.605903 0.04184,-0.242332 0.09456,-0.484146 0.177094,-0.716165 0.07637,-0.21352 0.119634,-0.440307 0.229099,-0.640472 0.0992,-0.167678 0.198844,-0.33809 0.342433,-0.472494 0.139948,-0.133126 0.286058,-0.259425 0.438957,-0.377238 0.168656,-0.134929 0.334134,-0.274232 0.516219,-0.391249 0.292356,-0.207508 0.600514,-0.390323 0.914033,-0.564036 0,0 -0.06608,0.05346 -0.06608,0.05346 z"
     inkscape:connector-curvature="0" />
  <path
     style="fill:#ffffff;stroke:#000000;stroke-width:2;stroke-linecap:round;stroke-linejoin:round;stroke-miterlimit:4;stroke-opacity:1;stroke-dasharray:none;stroke-dashoffset:0"
     id="path3060"
     d="m 34.184525,58.222718 c 0.128108,0.29289 0.238379,0.593418 0.364625,0.887288 0.125371,0.248135 0.218807,0.510949 0.317994,0.770397 0.0935,0.255008 0.219271,0.497415 0.348505,0.73593 0.122501,0.16975 0.226532,0.353769 0.358388,0.516428 0.123997,0.143992 0.185991,0.325443 0.274515,0.490809 0.0969,0.245728 0.167581,0.499685 0.271724,0.743009 0.118157,0.211152 0.201523,0.438569 0.292975,0.662008 0.07003,0.206937 0.164165,0.40521 0.278062,0.591429 0.06735,0.115314 0.03201,0.06046 0.105415,0.164959 0,0 -0.07313,0.04308 -0.07313,0.04308 l 0,0 c -0.0736,-0.105137 -0.03823,-0.05009 -0.105573,-0.165481 -0.114126,-0.186604 -0.208575,-0.385277 -0.278559,-0.592711 -0.09132,-0.223436 -0.174986,-0.450688 -0.2929,-0.661895 -0.103972,-0.243092 -0.174722,-0.496802 -0.271553,-0.742255 -0.08836,-0.164853 -0.150303,-0.345699 -0.273819,-0.489364 -0.131854,-0.163322 -0.236438,-0.347514 -0.358801,-0.517988 -0.129414,-0.238841 -0.255216,-0.481628 -0.349033,-0.736907 -0.09908,-0.259378 -0.192483,-0.522083 -0.317627,-0.770212 -0.125997,-0.293756 -0.235967,-0.594245 -0.364985,-0.886518 0,0 0.07378,-0.04201 0.07378,-0.04201 z"
     inkscape:connector-curvature="0" />
  <path
     style="fill:#ffffff;stroke:#000000;stroke-width:2;stroke-linecap:round;stroke-linejoin:round;stroke-miterlimit:4;stroke-opacity:1;stroke-dasharray:none;stroke-dashoffset:0"
     id="path3062"
     d="m 35.948525,56.248482 c -6.88e-4,0.335017 -4.6e-4,0.670035 -4.46e-4,1.005053 4.1e-5,0.306374 9.2e-5,0.612749 1.82e-4,0.919123 7.6e-5,0.249967 8.7e-5,0.499934 4.5e-5,0.749901 -9e-6,0.255117 2e-5,0.510235 -1.6e-5,0.765352 2.2e-5,0.220513 1.18e-4,0.441026 1.7e-4,0.661538 0.0043,0.08902 0.02182,0.173522 0.04864,0.257959 0,0 -0.07453,0.04091 -0.07453,0.04091 l 0,0 c -0.02723,-0.08523 -0.04507,-0.170472 -0.04973,-0.260345 5.2e-5,-0.220571 1.48e-4,-0.441141 1.71e-4,-0.661711 -3.7e-5,-0.255113 -8e-6,-0.510225 -1.7e-5,-0.765337 -4.2e-5,-0.249982 -3.1e-5,-0.499964 4.6e-5,-0.749946 8.9e-5,-0.306436 1.41e-4,-0.612872 1.81e-4,-0.919309 1.4e-5,-0.334866 2.43e-4,-0.669733 -4.45e-4,-1.004599 0,0 0.07574,-0.03859 0.07574,-0.03859 z"
     inkscape:connector-curvature="0" />
  <path
     style="fill:#ffffff;stroke:#000000;stroke-width:2;stroke-linecap:round;stroke-linejoin:round;stroke-miterlimit:4;stroke-opacity:1;stroke-dasharray:none;stroke-dashoffset:0"
     id="path3064"
     d="m 35.644932,63.366852 c 0.128441,0.221146 0.297118,0.411328 0.459013,0.607466 0.157641,0.151676 0.273356,0.338007 0.412903,0.504397 0.113846,0.154839 0.247929,0.292907 0.367967,0.442526 0.10846,0.133114 0.232102,0.251664 0.343036,0.382555 0.126331,0.147252 0.255888,0.291526 0.377585,0.442624 0.110454,0.153329 0.248842,0.281663 0.398821,0.395379 0.129463,0.117915 0.274842,0.212151 0.419536,0.309606 0.155004,0.108431 0.315728,0.206672 0.472834,0.312199 0.137868,0.103271 0.272194,0.203133 0.379277,0.339158 0.115046,0.135117 0.223541,0.273004 0.315171,0.424949 0.09896,0.149062 0.176317,0.310121 0.284862,0.452643 0.115981,0.152988 0.247318,0.293657 0.365914,0.444052 0.02056,0.02422 0.04111,0.04844 0.06167,0.07265 0,0 -0.07272,0.04375 -0.07272,0.04375 l 0,0 c -0.0206,-0.02431 -0.04119,-0.04862 -0.06179,-0.07293 -0.11884,-0.150295 -0.249937,-0.291203 -0.3661,-0.444117 -0.108626,-0.142835 -0.186175,-0.304139 -0.285384,-0.453398 -0.09149,-0.151578 -0.199685,-0.289284 -0.314473,-0.424125 -0.106851,-0.134993 -0.240913,-0.234095 -0.378001,-0.33685 -0.156916,-0.105777 -0.317888,-0.203625 -0.472751,-0.312248 -0.144958,-0.09732 -0.29011,-0.192171 -0.419786,-0.310032 -0.150222,-0.114509 -0.289146,-0.243163 -0.399973,-0.397089 -0.121625,-0.151078 -0.251032,-0.29538 -0.377515,-0.442413 -0.111081,-0.130827 -0.234744,-0.249482 -0.342994,-0.382849 -0.12007,-0.149524 -0.254205,-0.287478 -0.367941,-0.442338 -0.139238,-0.166662 -0.255273,-0.352679 -0.412596,-0.504646 -0.162376,-0.196405 -0.330732,-0.387404 -0.460203,-0.608449 0,0 0.07363,-0.04247 0.07363,-0.04247 z"
     inkscape:connector-curvature="0" />
  <path
     style="fill:#000000;stroke:#000000;stroke-width:1px;stroke-linecap:butt;stroke-linejoin:miter;stroke-opacity:1"
     d="m 44.589036,44.233332 c 0.209441,0 0.489458,-0.114548 0.60748,0.121496 0.01811,0.03622 -0.01811,0.08527 0,0.121496 0.02561,0.05123 0.09588,0.07027 0.121496,0.121496 0.05433,0.108669 -0.05434,0.255818 0,0.364488 0.01811,0.03622 0.09286,-0.02864 0.121496,0 0.02864,0.02864 -0.01811,0.08527 0,0.121496 0.02561,0.05123 0.09588,0.07027 0.121496,0.121496 0.03863,0.07726 -0.03354,0.506854 0,0.60748 0.01811,0.05433 0.09588,0.07027 0.121496,0.121496 0.01811,0.03622 -0.01281,0.08308 0,0.121496 0.02864,0.08591 0.09286,0.157081 0.121496,0.242992 0.01281,0.03842 -0.01811,0.08527 0,0.121496 0.05123,0.102454 0.191764,0.140537 0.242992,0.242992 0.01811,0.03622 0,0.081 0,0.121496 0,0.081 -0.01964,0.164413 0,0.242992 0.04393,0.175708 0.185718,0.314163 0.242992,0.485984 0.01281,0.03842 -0.01281,0.08307 0,0.121496 0.02864,0.08591 0.07126,0.167643 0.121496,0.242992 0.03177,0.04765 0.103384,0.06716 0.121496,0.121496 0.02561,0.07684 -0.01965,0.164413 0,0.242992 0.146674,0.586697 0.05774,-0.006 0.242992,0.364488 0.03622,0.07245 -0.03622,0.170546 0,0.242992 0.278019,0.556039 -0.05036,-0.515558 0.242992,0.364488 0.01281,0.03842 0,0.081 0,0.121496 0.0405,0.081 0.09286,0.157081 0.121496,0.242992 0.02786,0.08357 -0.03584,0.292803 0,0.364488 0.02561,0.05123 0.09588,0.07027 0.121496,0.121496 0.03863,0.07726 -0.03354,0.506855 0,0.60748 0.03622,0.108669 0.191765,0.140538 0.242992,0.242992 0.03622,0.07245 -0.03622,0.170546 0,0.242992 0.02561,0.05123 0.081,0.081 0.121496,0.121496 0,0.081 -0.02561,0.166151 0,0.242992 0.03622,0.10867 0.191765,0.140538 0.242992,0.242992 0.01811,0.03622 -0.02864,0.09286 0,0.121496 0.02864,0.02864 0.09286,-0.02864 0.121496,0 0.02864,0.02864 -0.01281,0.08308 0,0.121496 0.02864,0.08591 0.05746,0.178958 0.121496,0.242992 0.02864,0.02864 0.09286,-0.02864 0.121496,0 0.02864,0.02864 -0.02864,0.09286 0,0.121496 0.02864,0.02864 0.08527,-0.01811 0.121496,0 0.161735,0.08087 0.08126,0.162125 0.242992,0.242992 0.03622,0.01811 0.09286,-0.02864 0.121496,0 0.02864,0.02864 -0.02864,0.09286 0,0.121496 0.02864,0.02864 0.08308,-0.01281 0.121496,0 0.08591,0.02864 0.178958,0.05746 0.242992,0.121496 0.02864,0.02864 -0.02864,0.09286 0,0.121496 0.02864,0.02864 0.08527,-0.01811 0.121496,0 0.05123,0.02561 0.07027,0.09588 0.121496,0.121496 0.03622,0.01811 0.081,0 0.121496,0 0.081,0 0.166151,-0.02561 0.242992,0 0.05434,0.01811 0.07027,0.09588 0.121496,0.121496 0.03697,0.01849 0.309771,0 0.364488,0 0.06353,0 0.454038,0.01597 0.485984,0 0.160659,-0.08033 0.08233,-0.162662 0.242992,-0.242992 0.03622,-0.01811 0.081,0 0.121496,0 0.0405,-0.0405 0.07027,-0.09588 0.121496,-0.121496 0.03622,-0.01811 0.09286,0.02864 0.121496,0 0.02864,-0.02864 -0.02864,-0.09286 0,-0.121496 0.06403,-0.06403 0.167643,-0.07126 0.242992,-0.121496 0.196743,-0.131161 0.08527,-0.242992 0.364488,-0.242992 0.0405,0 0.09286,-0.02864 0.121496,0 0.02864,0.02864 0,0.081 0,0.121496 0,0.202494 0,0.404987 0,0.60748 0,0.688478 0,1.376955 0,2.065432 0,0.242992 0,0.485985 0,0.728977 0,0.0405 0,0.081 0,0.121496 0,0.0405 -0.01811,0.08527 0,0.121496 0.05123,0.102454 0.191765,0.140537 0.242992,0.242992 0.01811,0.03622 -0.01811,0.08527 0,0.121496 0.27802,0.556039 -0.05036,-0.515559 0.242992,0.364488 0.01281,0.03842 -0.01811,0.08527 0,0.121496 0.02561,0.05123 0.103385,0.06716 0.121496,0.121496 0.02561,0.07684 0,0.161994 0,0.242992 0,0.0405 -0.01811,0.08527 0,0.121496 0.402952,0.402951 -0.05727,-0.114548 0.121496,0.242992 0.02561,0.05123 0.09588,0.07027 0.121496,0.121496 0.03622,0.07245 -0.05727,0.185718 0,0.242992 0.02864,0.02864 0.09286,-0.02864 0.121496,0 0.02864,0.02864 -0.01811,0.08527 0,0.121496 0.02561,0.05123 0.09588,0.07027 0.121496,0.121496 0.01811,0.03622 -0.01811,0.08527 0,0.121496 0.02561,0.05123 0.09588,0.07027 0.121496,0.121496 0.01811,0.03622 0,0.081 0,0.121496 0,0.081 -0.01964,0.164413 0,0.242992 0.204592,0.818365 0.0019,0.0019 0.242992,0.242992 1.16e-4,1.16e-4 -1.83e-4,0.363937 0,0.364488 0.01811,0.05433 0.081,0.081 0.121496,0.121496 0.0405,0.081 0.09953,0.155138 0.121496,0.242992 0.01964,0.07858 -0.02561,0.166151 0,0.242992 0.01811,0.05433 0.081,0.081 0.121496,0.121496 0.0405,0.081 0.09286,0.157081 0.121496,0.242992 0.120558,0.361673 -0.287687,-0.249286 0.121496,0.364488 0.03177,0.04765 0.103385,0.06716 0.121496,0.121496 0.02561,0.07684 -0.01964,0.164413 0,0.242992 -0.220011,0.50831 0.191765,0.140538 0.242992,0.242992 0.0486,0.0972 -0.0486,0.267291 0,0.364488 0.05123,0.102454 0.206769,0.134323 0.242992,0.242992 0,0.553084 -0.05727,0.0069 0.121496,0.364488 0.01811,0.03622 -0.02864,0.09286 0,0.121496 0.02864,0.02864 0.08527,-0.01811 0.121496,0 0.221234,0.110617 0.07122,0.09216 0.121496,0.242992 0.02864,0.08591 0.07126,0.167643 0.121496,0.242992 0.06354,0.09531 0.191765,0.140538 0.242992,0.242992 0.01811,0.03622 0,0.081 0,0.121496 0.0405,0.081 0.07126,0.167644 0.121496,0.242992 0.03177,0.04765 0.081,0.081 0.121496,0.121496 0.0405,0.0405 0.07027,0.09588 0.121496,0.121496 0.03622,0.01811 0.09286,-0.02864 0.121496,0 0.06075,0.06075 -0.06075,0.30374 0,0.364488 0.02864,0.02864 0.09286,-0.02864 0.121496,0 0.05727,0.05727 -0.03622,0.170546 0,0.242992 0.02561,0.05123 0.09588,0.07027 0.121496,0.121496 0.01811,0.03622 -0.01811,0.08527 0,0.121496 0.02561,0.05123 0.09588,0.07027 0.121496,0.121496 0.03622,0.07245 -0.05727,0.185718 0,0.242992 0.02864,0.02864 0.09286,-0.02864 0.121496,0 0.02484,0.02484 -0.02409,0.316316 0,0.364488 0.08027,0.160531 0.162727,0.08246 0.242992,0.242992 0.01811,0.03622 0,0.081 0,0.121496 0,0.0405 0,0.081 0,0.121496 0,0.242992 0,0.485984 0,0.728976 0,0.688478 0,1.376955 0,2.065433 0,0.242992 0,0.485984 0,0.728976 0,0.05472 0.01849,0.327512 0,0.364488 -0.02561,0.05123 -0.07027,0.09588 -0.121496,0.121496 -0.163922,0.08196 -0.21101,-0.147048 -0.242992,-0.242992 -0.01281,-0.03842 0.02864,-0.09286 0,-0.121496 -0.02864,-0.02864 -0.09286,0.02864 -0.121496,0 -0.02864,-0.02864 0,-0.081 0,-0.121496 0,-0.081 0.03622,-0.170546 0,-0.242992 -0.01811,-0.03622 -0.08527,0.01811 -0.121496,0 -0.05123,-0.02561 -0.07027,-0.09588 -0.121496,-0.121496 -0.03622,-0.01811 -0.09286,0.02864 -0.121496,0 -0.02864,-0.02864 0.01811,-0.08527 0,-0.121496 -0.05123,-0.102455 -0.206769,-0.134323 -0.242992,-0.242992 -0.01852,-0.05557 0.02703,-0.431922 0,-0.485985 -0.02561,-0.05123 -0.09588,-0.07027 -0.121496,-0.121496 -0.0486,-0.0972 0.0486,-0.267291 0,-0.364488 -0.02561,-0.05123 -0.09588,-0.07027 -0.121496,-0.121496 -0.03882,-0.07764 0.0326,-0.388192 0,-0.485984 -0.293348,-0.880046 0.03503,0.191552 -0.242992,-0.364488 -0.04031,-0.08063 0.03928,-0.611139 0,-0.728976 -0.02864,-0.08591 -0.09286,-0.157081 -0.121496,-0.242992 -0.02561,-0.07684 0.03622,-0.170545 0,-0.242992 -0.02561,-0.05123 -0.103384,-0.06716 -0.121496,-0.121496 -0.02755,-0.08265 0.03221,-0.543058 0,-0.60748 -0.02561,-0.05123 -0.09588,-0.07027 -0.121496,-0.121496 -0.0486,-0.0972 0.0486,-0.267291 0,-0.364488 -0.02561,-0.05123 -0.09588,-0.07027 -0.121496,-0.121496 -0.01811,-0.03622 0,-0.081 0,-0.121496 0,-0.0405 0,-0.081 0,-0.121496 0,-0.275027 -0.16115,-0.361956 -0.242992,-0.60748 -0.01576,-0.04728 0.01886,-0.345633 0,-0.364488 -0.02864,-0.02864 -0.09286,0.02864 -0.121496,0 -0.02864,-0.02864 0.01811,-0.08527 0,-0.121496 -0.02561,-0.05123 -0.09588,-0.07027 -0.121496,-0.121496 -0.0486,-0.0972 0.0486,-0.267291 0,-0.364488 -0.02561,-0.05123 -0.09588,-0.07027 -0.121496,-0.121496 -0.03622,-0.07245 0.05727,-0.185718 0,-0.242992 -0.02864,-0.02864 -0.09286,0.02864 -0.121496,0 -0.251379,-0.25138 0.384142,0.0098 -0.121496,-0.242992 -0.03622,-0.01811 -0.08527,0.01811 -0.121496,0 -0.02326,-0.01163 -0.474355,-0.462727 -0.485984,-0.485984 -0.01811,-0.03622 0.01281,-0.08308 0,-0.121496 -0.146819,-0.440458 -0.05765,-0.08647 -0.242992,-0.364488 -0.174382,-0.261574 -0.06861,-0.22441 -0.242992,-0.485984 -0.03368,-0.05053 -0.44253,-0.464257 -0.485984,-0.485984 -0.03622,-0.01811 -0.09286,0.02864 -0.121496,0 -0.02864,-0.02864 0.02864,-0.09286 0,-0.121496 -0.02864,-0.02864 -0.08527,0.01811 -0.121496,0 -0.145795,-0.0729 -0.218693,-0.291591 -0.364488,-0.364488 -0.03622,-0.01811 -0.081,0 -0.121496,0 -0.081,-0.0405 -0.167643,-0.07126 -0.242992,-0.121496 -0.302214,-0.201476 -0.01396,-0.02792 -0.121496,-0.242992 -0.134317,-0.268635 -0.07541,-0.0377 -0.242992,-0.121496 -0.05123,-0.02561 -0.081,-0.081 -0.121496,-0.121496 -0.0405,-0.0405 -0.081,-0.081 -0.121496,-0.121496 -0.06396,-0.06396 -0.332044,-0.299599 -0.364488,-0.364488 -0.01811,-0.03622 0.02864,-0.09286 0,-0.121496 -0.02864,-0.02864 -0.103384,0.03622 -0.121496,0 -0.03622,-0.07245 0.03622,-0.170546 0,-0.242992 -0.01811,-0.03622 -0.09286,0.02864 -0.121496,0 -0.02864,-0.02864 0.01811,-0.08527 0,-0.121496 -0.05384,-0.107687 -0.290755,-0.253889 -0.364488,-0.364488 -0.409183,-0.613775 -9.38e-4,-0.0028 -0.121496,-0.364488 -0.14682,-0.440459 -0.05765,-0.08647 -0.242992,-0.364488 -0.532388,-0.590609 0.05416,-0.01318 -0.121496,-0.364488 -0.02561,-0.05123 -0.09588,-0.07027 -0.121496,-0.121496 -0.05727,-0.114548 -0.06422,-0.249941 -0.121496,-0.364488 -0.02561,-0.05123 -0.08973,-0.07384 -0.121496,-0.121496 -0.05023,-0.07535 -0.081,-0.161995 -0.121496,-0.242993 -0.0405,-0.081 -0.09286,-0.157081 -0.121496,-0.242992 -0.01281,-0.03842 0.02864,-0.09286 0,-0.121496 -0.25138,-0.251379 0.0098,0.384142 -0.242992,-0.121496 -0.01811,-0.03622 0.01811,-0.08527 0,-0.121496 -0.01613,-0.03226 -0.33223,-0.348358 -0.364488,-0.364488 -0.03622,-0.01811 -0.09286,0.02864 -0.121496,0 -0.02864,-0.02864 0.01811,-0.08527 0,-0.121496 -0.02561,-0.05123 -0.103385,-0.06716 -0.121496,-0.121496 -0.02561,-0.07684 0.03622,-0.170545 0,-0.242992 -0.12569,0 -0.167926,0.02864 -0.242992,-0.121496 -0.01811,-0.03622 0.01811,-0.08527 0,-0.121496 -0.02561,-0.05123 -0.081,-0.081 -0.121496,-0.121496 -0.0405,-0.0405 -0.07027,-0.09588 -0.121496,-0.121496 -0.03622,-0.01811 -0.103385,0.03622 -0.121496,0 -0.03622,-0.07245 0.01964,-0.164413 0,-0.242992 -0.146675,-0.586697 -0.05774,0.006 -0.242992,-0.364488 -0.01811,-0.03622 0.02864,-0.09286 0,-0.121496 -0.02864,-0.02864 -0.09286,0.02864 -0.121496,0 -0.06403,-0.06403 -0.07126,-0.167643 -0.121496,-0.242992 -0.03177,-0.04765 -0.09588,-0.07027 -0.121496,-0.121496 -0.01811,-0.03622 0.01811,-0.08527 0,-0.121496 -0.02561,-0.05123 -0.103385,-0.06716 -0.121496,-0.121496 -1.84e-4,-5.5e-4 1.16e-4,-0.364372 0,-0.364488 -0.02864,-0.02864 -0.08527,0.01811 -0.121496,0 -0.505638,-0.252818 0.129883,0.0084 -0.121496,-0.242992 -0.02864,-0.02864 -0.09286,0.02864 -0.121496,0 -0.05727,-0.05727 0.03622,-0.170546 0,-0.242992 -0.05123,-0.102454 -0.206769,-0.134323 -0.242992,-0.242992 -0.02561,-0.07684 0.03622,-0.170546 0,-0.242992 -0.01811,-0.03622 -0.09286,0.02864 -0.121496,0 -0.05727,-0.05727 0.03622,-0.170546 0,-0.242992 -0.27802,-0.556039 0.05036,0.515558 -0.242992,-0.364488 -0.03778,-0.113331 0.03743,-0.495188 0,-0.60748 -0.01811,-0.05433 -0.103385,-0.06716 -0.121496,-0.121496 -0.07684,-0.109026 0.03842,-0.249227 0,-0.364488 -0.02864,-0.08591 -0.09286,-0.157081 -0.121496,-0.242992 -0.02441,-0.07322 0.02441,-0.169768 0,-0.242992 -0.02864,-0.08591 -0.09286,-0.157081 -0.121496,-0.242992 -0.01281,-0.03842 0.01281,-0.08308 0,-0.121496 -0.02864,-0.08591 -0.09286,-0.157081 -0.121496,-0.242992 -0.01281,-0.03842 0.01811,-0.08527 0,-0.121496 -0.02561,-0.05123 -0.09588,-0.07027 -0.121496,-0.121496 -0.01362,-0.02723 0,-0.457113 0,-0.485984 0,-0.242992 0,-0.485984 0,-0.728976 0,-0.32399 0,-0.647979 0,-0.971968 0,-0.07984 -0.02285,-0.29594 0,-0.364488 0.02864,-0.08591 0.07126,-0.167644 0.121496,-0.242992 0.05645,-0.08468 0.187738,-0.110507 0.121496,-0.242992 -0.105608,-0.211216 -0.242992,-0.404987 -0.364488,-0.60748 z"
     id="path3086"
     inkscape:connector-curvature="0" />
  <path
     style="fill:#000000;stroke:#000000;stroke-width:1px;stroke-linecap:butt;stroke-linejoin:miter;stroke-opacity:1"
     d="m 62.691941,53.467028 c 0,0.971968 0,1.943936 0,2.915905 0,0.202493 0,0.404986 0,0.60748 0,0.081 -0.03622,0.170545 0,0.242992 0.01811,0.03622 0.103384,-0.03622 0.121496,0 0.03622,0.07245 -0.02561,0.166151 0,0.242992 0.03622,0.108669 0.191765,0.140537 0.242992,0.242992 0.01811,0.03622 -0.01811,0.08527 0,0.121496 0.03244,0.06489 0.300525,0.300524 0.364488,0.364488 0.06396,0.06396 0.299599,0.332043 0.364488,0.364488 0.03622,0.01811 0.08527,-0.01811 0.121496,0 0.05123,0.02561 0.081,0.081 0.121496,0.121496 0.0405,0.0405 0.09588,0.07027 0.121496,0.121496 0.01811,0.03622 -0.02864,0.09286 0,0.121496 0.02864,0.02864 0.08527,-0.01811 0.121496,0 0.402952,0.402951 -0.114547,-0.05727 0.242992,0.121496 0.505637,0.252818 -0.129883,-0.0084 0.121496,0.242992 0.05727,0.05727 0.170546,-0.03622 0.242992,0 0.145795,0.0729 0.218693,0.29159 0.364488,0.364488 0.03622,0.01811 0.09286,-0.02864 0.121496,0 0.02864,0.02864 -0.03622,0.103384 0,0.121496 0.07245,0.03622 0.166151,-0.02561 0.242992,0 0.05434,0.01811 0.07384,0.08973 0.121496,0.121496 0.07535,0.05023 0.167644,0.07126 0.242992,0.121496 0.04765,0.03177 0.07027,0.09588 0.121496,0.121496 0.06482,0.03241 0.178174,-0.03241 0.242992,0 0.05123,0.02561 0.06422,0.121496 0.121496,0.121496 0.0405,0 0,-0.081 0,-0.121496 0,-0.081 -0.03622,-0.170546 0,-0.242992 0.01811,-0.03622 0.09286,0.02864 0.121496,0 0.02484,-0.02484 -0.02409,-0.316316 0,-0.364488 0.02561,-0.05123 0.09588,-0.07027 0.121496,-0.121496 0.01811,-0.03622 0,-0.081 0,-0.121496 0,-0.0405 0,-0.081 0,-0.121496 0,-0.202494 0,-0.404987 0,-0.60748 0,-0.081 -0.03622,-0.170546 0,-0.242992 0.01811,-0.03622 0.09286,0.02864 0.121496,0 0.02864,-0.02864 0,-0.081 0,-0.121496 0,-0.0405 0,-0.081 0,-0.121496 0,-0.05729 -0.0055,-0.601974 0,-0.60748 0.02864,-0.02864 0.09286,-0.02864 0.121496,0 0.02864,0.02864 -0.01811,0.08527 0,0.121496 0.02561,0.05123 0.08973,0.07384 0.121496,0.121496 0.440459,0.880916 -0.128068,-0.192102 0.242992,0.364488 0.05023,0.07535 0.081,0.161994 0.121496,0.242992 0.0405,0.081 0.09286,0.157081 0.121496,0.242992 0.01281,0.03842 -0.01811,0.08527 0,0.121496 0.08143,0.162859 0.161563,0.08013 0.242992,0.242992 0.01811,0.03622 0,0.081 0,0.121496 0,0.081 -0.02561,0.166151 0,0.242992 0.06486,0.194578 0.178133,0.04841 0.242992,0.242992 0.02561,0.07684 -0.02561,0.166151 0,0.242992 0.01811,0.05433 0.09588,0.07027 0.121496,0.121496 0.01811,0.03622 -0.01281,0.08308 0,0.121496 0.293349,0.880046 -0.03503,-0.191552 0.242992,0.364488 0.01811,0.03622 -0.01811,0.08527 0,0.121496 0.05123,0.102454 0.179453,0.147683 0.242992,0.242992 0.0405,0.081 0.081,0.161995 0.121496,0.242992 0,0.0405 -0.01811,0.08527 0,0.121496 0.08143,0.162859 0.161563,0.08013 0.242992,0.242992 0.0486,0.0972 -0.0486,0.267291 0,0.364488 0.02561,0.05123 0.09588,0.07027 0.121496,0.121496 0.03622,0.07245 -0.02561,0.166151 0,0.242992 0.0405,0.081 0.081,0.161995 0.121496,0.242992 0.0405,0 0.09286,-0.02864 0.121496,0 0.05727,0.05727 -0.03622,0.170546 0,0.242992 0.08116,0.162311 0.161837,0.08068 0.242992,0.242992 0.01811,0.03622 -0.01281,0.08308 0,0.121496 0.02864,0.08591 0.09286,0.157081 0.121497,0.242992 0.01281,0.03842 -0.01811,0.08527 0,0.121496 0.252818,0.505637 -0.0084,-0.129883 0.242992,0.121496 0.02864,0.02864 -0.01811,0.08527 0,0.121496 0.276542,0.276542 0.03211,-0.02516 0.121496,0.242992 0.0405,0.081 0.081,0.161995 0.121496,0.242992 0.0405,0 0.09286,-0.02864 0.121496,0 0.02864,0.02864 -0.01811,0.08527 0,0.121496 0.02561,0.05123 0.09588,0.07027 0.121496,0.121496 0.01811,0.03622 -0.01811,0.08527 0,0.121496 0.01613,0.03226 0.332229,0.348359 0.364488,0.364488 0.03622,0.01811 0.081,0 0.121496,0 0.0405,0 0.09286,0.02864 0.121496,0 0.02864,-0.02864 -0.01811,-0.08527 0,-0.121496 0.02561,-0.05123 0.081,-0.081 0.121496,-0.121496 0.0405,-0.0405 0.07027,-0.09588 0.121496,-0.121496 0.01746,-0.0087 0.601961,-0.0018 0.60748,0 0.108669,0.03622 0.140537,0.191765 0.242992,0.242992 0.03622,0.01811 0.081,0 0.121496,0 0.180836,0 0.155076,-0.01811 0.364488,0.121496 0.27802,0.185347 -0.07597,0.09617 0.364488,0.242992 0.03842,0.01281 0.08527,-0.01811 0.121496,0 0.03226,0.01613 0.348359,0.33223 0.364488,0.364488 0.01811,0.03622 -0.02864,0.09286 0,0.121496 0.02864,0.02864 0.09286,-0.02864 0.121496,0 0.02864,0.02864 -0.01811,0.08527 0,0.121496 0.02561,0.05123 0.103384,0.06716 0.121496,0.121496 0.02561,0.07684 -0.03622,0.170546 0,0.242992 0.01811,0.03622 0.09286,-0.02864 0.121496,0 0.02864,0.02864 0,0.081 0,0.121496 0.0405,0 0.08527,-0.01811 0.121496,0 0.05123,0.02561 0.06422,0.121496 0.121496,0.121496 0.201476,0 0.08519,-0.170382 0.121496,-0.242992 0.02561,-0.05123 0.09588,-0.07027 0.121496,-0.121496 0.03584,-0.07169 -0.02786,-0.280919 0,-0.364488 0.0405,-0.081 0.081,-0.161994 0.121496,-0.242992 0,-0.0405 -0.01281,-0.08307 0,-0.121496 0.02864,-0.08591 0.09286,-0.157081 0.121496,-0.242992 0.01281,-0.03842 -0.02864,-0.09286 0,-0.121496 0.02864,-0.02864 0.081,0 0.121496,0 0.08612,0 0.697563,-0.01571 0.728976,0 0.05123,0.02561 0.07027,0.09588 0.121496,0.121496 0.03622,0.01811 0.08527,-0.01811 0.121496,0 0.05123,0.02561 0.07027,0.09588 0.121496,0.121496 0.03622,0.01811 0.08527,-0.01811 0.121496,0 0.05123,0.02561 0.07027,0.09588 0.121496,0.121496 0.06461,0.03231 0.178381,-0.03231 0.242992,0 0.05123,0.02561 0.09588,0.07027 0.121496,0.121496 0.01811,0.03622 -0.03622,0.103385 0,0.121496 0.07245,0.03622 0.170546,-0.03622 0.242992,0 0.03622,0.01811 -0.02864,0.09286 0,0.121496 0.05727,0.05727 0.170546,-0.03622 0.242992,0 0.03296,0.01648 0.210038,0.226515 0.242992,0.242992 0.07665,0.03832 0.530832,-0.03832 0.60748,0 0.05123,0.02561 0.07027,0.09588 0.121496,0.121496 0.03622,0.01811 0.08527,-0.01811 0.121496,0 0.05123,0.02561 0.07027,0.09588 0.121496,0.121496 0.03622,0.01811 0.08527,-0.01811 0.121496,0 0.05123,0.02561 0.07027,0.09588 0.121496,0.121496 0.03622,0.01811 0.08527,-0.01811 0.121496,0 0.102455,0.05123 0.140538,0.191765 0.242992,0.242992 0.03622,0.01811 0.08527,-0.01811 0.121496,0 0.05123,0.02561 0.07027,0.09588 0.121496,0.121496 0.03622,0.01811 0.08527,-0.01811 0.121496,0 0.505638,0.252819 -0.129883,-0.0084 0.121496,0.242992 0.04055,0.04055 0.202441,-0.04055 0.242992,0 0.02864,0.02864 -0.02864,0.09286 0,0.121496 0.02864,0.02864 0.08527,-0.01811 0.121496,0 0.05123,0.02561 0.07027,0.09588 0.121496,0.121496 0.03622,0.01811 0.08527,-0.01811 0.121496,0 0.05123,0.02561 0.07384,0.08973 0.121496,0.121496 0.199027,0.132685 0.286958,0.110308 0.485984,0.242992 0.04766,0.03177 0.07027,0.09588 0.121496,0.121496 0.03622,0.01811 0.08527,-0.01811 0.121496,0 0.05123,0.02561 0.07027,0.09588 0.121496,0.121496 0.03622,0.01811 0.09286,-0.02864 0.121496,0 0.02864,0.02864 -0.02864,0.09286 0,0.121496 0.02864,0.02864 0.08527,-0.01811 0.121496,0 0.07739,0.03869 0.512013,0.512013 0.60748,0.60748 0.0405,0.0405 0.07027,0.09588 0.121496,0.121497 0.03622,0.01811 0.09286,-0.02864 0.121496,0 0.02864,0.02864 -0.01811,0.08527 0,0.121496 0.02561,0.05123 0.09588,0.07027 0.121496,0.121496 0.01811,0.03622 0,0.081 0,0.121496 0.0405,0.081 0.07126,0.167643 0.121496,0.242992 0.07373,0.110599 0.310645,0.256801 0.364489,0.364488 0.03622,0.07245 -0.03622,0.170545 0,0.242992 0.102599,0.205199 0.140392,0.03779 0.242992,0.242992 0.01811,0.03622 -0.02864,0.09286 0,0.121496 0.02864,0.02864 0.09286,-0.02864 0.121496,0 0.05727,0.05727 -0.03622,0.170545 0,0.242992 0.102599,0.205199 0.140392,0.03779 0.242992,0.242992 0.01811,0.03622 -0.01811,0.08527 0,0.121496 0.02561,0.05123 0.09588,0.07027 0.121496,0.121496 0.01811,0.03622 -0.02864,0.09286 0,0.121496 0.02864,0.02864 0.103384,-0.03622 0.121496,0 0.03622,0.07245 -0.03622,0.170545 0,0.242992 0.01811,0.03622 0.08527,-0.01811 0.121496,0 0.260726,0.130363 0.0056,0.132679 0.121496,0.364488 0.01811,0.03622 0.09286,-0.02864 0.121496,0 0.02864,0.02864 0,0.081 0,0.121496 0,0.0405 0,0.081 0,0.121496 0,0.0405 0.0405,0.121496 0,0.121496 -0.07399,0 -0.318244,-0.150503 -0.364488,-0.242992 -0.01811,-0.03622 0.03622,-0.103385 0,-0.121496 -0.07245,-0.03622 -0.166152,0.02561 -0.242992,0 -0.05434,-0.01811 -0.07384,-0.08973 -0.121496,-0.121496 -0.07535,-0.05023 -0.167644,-0.07126 -0.242992,-0.121496 -0.04765,-0.03177 -0.07027,-0.09588 -0.121496,-0.121496 -0.03622,-0.01811 -0.081,0 -0.121496,0 -0.0405,-0.0405 -0.07027,-0.09588 -0.121496,-0.121496 -0.03622,-0.01811 -0.08527,0.01811 -0.121497,0 -0.102454,-0.05123 -0.140537,-0.191765 -0.242992,-0.242992 -0.07636,-0.03818 -0.409621,0.03818 -0.485984,0 -0.03622,-0.01811 0.02864,-0.09286 0,-0.121496 -0.0049,-0.0049 -0.441366,0 -0.485984,0 -0.05472,0 -0.327512,0.01849 -0.364488,0 -0.505637,-0.252819 0.129884,0.0084 -0.121496,-0.242992 -0.02484,-0.02484 -0.316315,0.02409 -0.364488,0 -0.05123,-0.02561 -0.07027,-0.09588 -0.121496,-0.121496 -0.03622,-0.01811 -0.081,0 -0.121496,0 -0.081,-0.0405 -0.167643,-0.07126 -0.242992,-0.121496 -0.04765,-0.03177 -0.07027,-0.09588 -0.121496,-0.121496 -0.06493,-0.03246 -0.178064,0.03246 -0.242992,0 -0.05123,-0.02561 -0.07027,-0.09588 -0.121496,-0.121496 -0.04817,-0.02409 -0.33965,0.02484 -0.364488,0 -0.02864,-0.02864 0.02864,-0.09286 0,-0.121496 -0.02864,-0.02864 -0.081,0 -0.121496,0 -0.117713,0 -0.656531,0.02415 -0.728976,0 -0.081,-0.0405 -0.161995,-0.081 -0.242992,-0.121496 0,-0.0405 0.02864,-0.09286 0,-0.121496 -0.0039,-0.0039 -0.335022,0 -0.364488,0 -0.06353,0 -0.454038,0.01597 -0.485984,0 -0.05123,-0.02561 -0.07027,-0.09588 -0.121496,-0.121496 -0.0972,-0.0486 -0.267291,0.0486 -0.364488,0 -0.05123,-0.02561 -0.07027,-0.09588 -0.121496,-0.121496 -0.07245,-0.03622 -0.170546,0.03622 -0.242992,0 -0.05123,-0.02561 -0.07027,-0.09588 -0.121496,-0.121496 -0.03622,-0.01811 -0.08527,0.01811 -0.121496,0 -0.55604,-0.27802 0.515558,0.05036 -0.364488,-0.242992 -0.03842,-0.01281 -0.08527,0.01811 -0.121496,0 -0.05123,-0.02561 -0.07027,-0.09588 -0.121496,-0.121496 -0.07245,-0.03622 -0.170546,0.03622 -0.242992,0 -0.05123,-0.02561 -0.07027,-0.09588 -0.121496,-0.121496 -0.03622,-0.01811 -0.09286,0.02864 -0.121496,0 -0.02864,-0.02864 0.02864,-0.09286 0,-0.121496 -0.05727,-0.05727 -0.170546,0.03622 -0.242992,0 -0.05123,-0.02561 -0.07027,-0.09588 -0.121496,-0.121496 -0.0972,-0.0486 -0.267291,0.0486 -0.364488,0 -0.03292,-0.01646 -0.210069,-0.226531 -0.242992,-0.242993 -0.06591,-0.03296 -0.45274,0.03324 -0.485984,0 -0.02864,-0.02864 0.02864,-0.09286 0,-0.121496 -0.05727,-0.05727 -0.185718,0.05727 -0.242992,0 -0.02864,-0.02864 0.02864,-0.09286 0,-0.121496 -0.02484,-0.02484 -0.316316,0.02409 -0.364488,0 -0.05123,-0.02561 -0.07027,-0.09588 -0.121496,-0.121496 -0.03622,-0.01811 -0.08527,0.01811 -0.121496,0 -0.05123,-0.02561 -0.06422,-0.121496 -0.121496,-0.121496 -0.0405,0 0,0.081 0,0.121496 0,0.28493 -0.02864,-0.05727 0.121496,0.242992 0.01811,0.03622 -0.01811,0.08527 0,0.121496 0.02561,0.05123 0.09588,0.07027 0.121496,0.121496 0.01811,0.03622 -0.01811,0.08527 0,0.121497 0.05384,0.107686 0.290755,0.253888 0.364488,0.364488 0.267675,0.06118 0.06422,0.24994 0.121496,0.364488 0.04344,0.08689 0.259006,0.174236 0.121496,0.242992 -0.07245,0.03622 -0.161995,0 -0.242992,0 -0.0405,0 -0.08527,0.01811 -0.121496,0 -0.05123,-0.02561 -0.07384,-0.08973 -0.121496,-0.121496 -0.07535,-0.05023 -0.178958,-0.05746 -0.242992,-0.121496 -0.02864,-0.02864 0.02864,-0.09286 0,-0.121496 -0.02864,-0.02864 -0.08221,0.0098 -0.121496,0 -0.124245,-0.03106 -0.249941,-0.06422 -0.364488,-0.121496 -0.164688,-0.08234 -0.07831,-0.160649 -0.242992,-0.242992 -0.299239,-0.14962 0.109678,0.35267 -0.364488,-0.121496 -0.02864,-0.02864 0.02864,-0.09286 0,-0.121496 -0.02864,-0.02864 -0.08527,0.01811 -0.121496,0 -0.55604,-0.27802 0.515558,0.05036 -0.364488,-0.242993 -0.03842,-0.01281 -0.09286,0.02864 -0.121496,0 -0.02864,-0.02864 0.03622,-0.103384 0,-0.121496 -0.07245,-0.03622 -0.166152,0.02561 -0.242992,0 -0.10867,-0.03622 -0.140538,-0.191764 -0.242992,-0.242992 -0.03622,-0.01811 -0.09286,0.02864 -0.121496,0 -0.02864,-0.02864 0.03622,-0.103384 0,-0.121496 -0.07245,-0.03622 -0.166152,0.02561 -0.242992,0 -0.10867,-0.03622 -0.140538,-0.191764 -0.242993,-0.242992 -0.06488,-0.03244 -0.17811,0.03244 -0.242992,0 -0.505637,-0.252818 0.129884,0.0084 -0.121496,-0.242992 -0.02864,-0.02864 -0.09286,0.02864 -0.121496,0 -0.06403,-0.06403 -0.081,-0.161994 -0.121496,-0.242992 -0.0405,-0.081 -0.09286,-0.157081 -0.121496,-0.242992 -0.01281,-0.03842 0.02864,-0.09286 0,-0.121496 -0.02864,-0.02864 -0.103384,0.03622 -0.121496,0 -0.05433,-0.108669 0,-0.242992 0,-0.364488 0,-0.09695 -0.0243,-0.534589 0,-0.60748 0.02864,-0.08591 0.09286,-0.157081 0.121496,-0.242992 0.02549,-0.07647 0,-0.497968 0,-0.60748 0,-0.0836 0.02358,-0.658231 0,-0.728976 -0.07355,-0.220664 -0.103982,-0.225478 -0.242992,-0.364488 -0.0405,-0.0405 -0.07027,-0.09588 -0.121496,-0.121496 -0.03622,-0.01811 -0.081,0 -0.121496,0 -0.274488,0 0.03622,-0.03622 -0.242992,0.242992 -0.02864,0.02864 -0.09286,-0.02864 -0.121496,0 -0.251379,0.25138 0.384142,-0.0098 -0.121496,0.242992 -0.03409,0.01705 -0.451891,0.01705 -0.485984,0 -0.05123,-0.02561 -0.07027,-0.09588 -0.121496,-0.121496 -0.07245,-0.03622 -0.166151,0.02561 -0.242992,0 -0.08591,-0.02864 -0.157081,-0.09286 -0.242992,-0.121496 -0.03842,-0.01281 -0.08527,0.01811 -0.121496,0 -0.102454,-0.05123 -0.131864,-0.21521 -0.242992,-0.242992 -0.117868,-0.02947 -0.255818,0.05433 -0.364488,0 -0.297701,-0.14885 0.03778,-0.270897 -0.242992,-0.364488 -0.07684,-0.02561 -0.166151,0.02561 -0.242992,0 -0.108669,-0.03622 -0.134323,-0.206769 -0.242992,-0.242992 -0.07684,-0.02561 -0.166151,0.02561 -0.242992,0 -0.108669,-0.03622 -0.140537,-0.191765 -0.242992,-0.242992 -0.03622,-0.01811 -0.08527,0.01811 -0.121496,0 -0.03205,-0.01603 -0.21094,-0.226966 -0.242992,-0.242992 -0.03622,-0.01811 -0.081,0 -0.121496,0 -0.081,0 -0.170546,0.03622 -0.242992,0 -0.03622,-0.01811 0.02864,-0.09286 0,-0.121496 -0.02864,-0.02864 -0.08527,0.01811 -0.121496,0 -0.05123,-0.02561 -0.07027,-0.09588 -0.121496,-0.121496 -0.07245,-0.03622 -0.170546,0.03622 -0.242992,0 -0.05123,-0.02561 -0.07027,-0.09588 -0.121496,-0.121496 -0.07245,-0.03622 -0.185718,0.05727 -0.242992,0 -0.02864,-0.02864 0.02864,-0.09286 0,-0.121496 -0.02864,-0.02864 -0.09286,0.02864 -0.121496,0 -0.05727,-0.05727 0.03622,-0.170546 0,-0.242992 -0.02561,-0.05123 -0.09588,-0.07027 -0.121496,-0.121496 -0.01811,-0.03622 0.01811,-0.08527 0,-0.121496 -0.05123,-0.102454 -0.179453,-0.147683 -0.242992,-0.242992 -0.05023,-0.07535 -0.05746,-0.178958 -0.121496,-0.242992 -0.02864,-0.02864 -0.09286,0.02864 -0.121496,0 -0.05727,-0.05727 0.03622,-0.170546 0,-0.242992 -0.02561,-0.05123 -0.09588,-0.07027 -0.121496,-0.121496 -0.01811,-0.03622 0.01811,-0.08527 0,-0.121496 -0.02561,-0.05123 -0.09588,-0.07027 -0.121496,-0.121496 -0.03622,-0.07245 0.03622,-0.170546 0,-0.242992 -0.27802,-0.55604 0.05036,0.515558 -0.242992,-0.364488 -0.04328,-0.129849 0.05136,-0.504754 0,-0.60748 -0.01811,-0.03622 -0.09286,0.02864 -0.121496,0 -0.01885,-0.01885 0.01576,-0.317211 0,-0.364488 -0.02864,-0.08591 -0.09286,-0.157082 -0.121496,-0.242992 -0.02285,-0.06855 0,-0.284652 0,-0.364488 0,-0.202494 0,-0.404987 0,-0.60748 0,-0.242992 0,-0.485984 0,-0.728976 0,-0.081 0,-0.161995 0,-0.242992 0,-0.081 -0.01964,-0.164413 0,-0.242992 -0.07323,-0.219901 0.196816,-0.225962 0.242992,-0.364488 0.03842,-0.115262 0,-0.242992 0,-0.364488 0,-0.242993 0,-0.485985 0,-0.728977"
     id="path3088"
     inkscape:connector-curvature="0" />
  <path
     style="fill:#000000;stroke:#000000;stroke-width:1px;stroke-linecap:butt;stroke-linejoin:miter;stroke-opacity:1"
     d="m 48.11242,29.775306 c 0,1.295958 0,2.591915 0,3.887873 0,0.05893 -0.0078,0.721161 0,0.728976 0.05727,0.05727 0.161994,0 0.242992,0 0.172233,0 1.395126,-0.03141 1.457952,0 0.102454,0.05123 0.191765,0.140537 0.242992,0.242992 0.07245,0.144892 -0.05123,0.332302 0,0.485984 0.05727,0.171821 0.185718,0.314163 0.242992,0.485984 0.05123,0.153682 -0.07245,0.341092 0,0.485984 0.102454,0.204909 0.38353,0.281075 0.485984,0.485984 0.07245,0.144892 -0.114548,0.371437 0,0.485984 0.05727,0.05727 0.185718,-0.05727 0.242992,0 0.05727,0.05727 0,0.161995 0,0.242992 0,0.081 0,0.161995 0,0.242992 0,1.21496 0,2.42992 0,3.64488 0,0.05893 -0.0078,0.721162 0,0.728976 0.05727,0.05727 0.185718,-0.05727 0.242992,0 0.04968,0.04968 -0.04817,0.632632 0,0.728977 0.300266,0.600531 0.242992,-0.08388 0.242992,0.485984 0,0.11457 -0.01101,1.203947 0,1.21496 0.05727,0.05727 0.185718,-0.05727 0.242992,0 0.04968,0.04968 -0.04817,0.632631 0,0.728976 0.05123,0.102454 0.206769,0.134322 0.242992,0.242992 0.07684,0.230522 0,0.485984 0,0.728976 0,0.242992 0,0.485984 0,0.728976 0,0.081 0.081,0.242992 0,0.242992 -0.04022,0 0.04504,-1.367866 0,-1.457952 -0.102454,-0.204909 -0.38353,-0.281075 -0.485984,-0.485984 -0.03622,-0.07245 0.05727,-0.185719 0,-0.242992 -0.05727,-0.05727 -0.185718,0.05727 -0.242992,0 -0.06649,-0.06649 0.06591,-0.840148 0,-0.971968 -0.300266,-0.600532 -0.242992,0.08387 -0.242992,-0.485984 0,-0.647979 0.081,0.081 -0.242992,-0.242992 -0.05727,-0.05727 0,-0.161995 0,-0.242992 0,-0.081 0,-0.161995 0,-0.242992 0,-0.404987 0,-0.809974 0,-1.214961 0,-0.081 0,-0.161994 0,-0.242992 0,-0.081 0.03622,-0.170545 0,-0.242992 -0.05123,-0.102454 -0.191765,-0.140537 -0.242992,-0.242992 -0.03622,-0.07245 0,-0.161994 0,-0.242992 -0.081,-0.081 -0.191765,-0.140537 -0.242992,-0.242992 -0.03622,-0.07245 0.03622,-0.170545 0,-0.242992 -0.505637,-1.011274 0.01677,0.259767 -0.485984,-0.242992 -0.114548,-0.114547 0.07245,-0.341091 0,-0.485984 -0.805903,-0.805903 0.114547,0.229095 -0.242992,-0.485984 -0.05123,-0.102454 -0.191765,-0.140537 -0.242992,-0.242992 -0.03622,-0.07245 0.03622,-0.170546 0,-0.242992 -0.033,-0.066 -0.452982,-0.419979 -0.485984,-0.485984 -0.03622,-0.07245 0.05727,-0.185718 0,-0.242992 -0.05727,-0.05727 -0.185718,0.05727 -0.242992,0 -0.114548,-0.114547 0.114547,-0.371436 0,-0.485984 -0.05727,-0.05727 -0.185718,0.05727 -0.242992,0 -0.114548,-0.114547 0.07245,-0.341092 0,-0.485984 -0.505637,-1.011275 0.01677,0.259767 -0.485984,-0.242992 -0.05727,-0.05727 0,-0.161995 0,-0.242992 0,-0.242992 0,-0.485984 0,-0.728976 0,-0.081 -0.081,-0.242992 0,-0.242992 0.081,0 0,0.323989 0,0.242992 0,-0.242992 0,-0.485984 0,-0.728976 0,-0.11457 0.01101,-1.203947 0,-1.21496 -0.05727,-0.05727 -0.185718,0.05727 -0.242992,0 -0.05727,-0.05727 0,-0.161995 0,-0.242992 0,-0.081 0,-0.161995 0,-0.242992 0,-0.404987 0,-0.809974 0,-1.21496 0,-0.161995 -0.0445,-0.330223 0,-0.485984 0.140732,-0.492562 0.323989,-0.971968 0.485984,-1.457953 z"
     id="path3090"
     inkscape:connector-curvature="0" />
</svg>
